# xmcd
#
# Track frame offsets:
#	150
#	14173
#	29317
#	42472
#	62672
#	79158
#	98443
#	115925
#	130418
#	150807
#	166119
#	184297
#	201770
#	216916
#
# Disc length: 3214 seconds
#
# Revision: 0
# Processed by: cddbd v1.5.2PL0 Copyright (c) Steve Scherf et al.
# Submitted via: EZCDAudioConverter 1.0.8.1
#
DISCID=b80c8c0e
DTITLE=Aaron Watson - The Underdog
DYEAR=2015
DGENRE=Country
TTITLE0=The Prayer
TTITLE1=Wildfire
TTITLE2=Freight Train
TTITLE3=That Look
TTITLE4=Getaway Truck
TTITLE5=Bluebonnets (Julia's Song)
TTITLE6=That's Why God Loves Cowboys
TTITLE7=That's Gonna Leave A Mark
TTITLE8=The Underdog
TTITLE9=Blame It On Those Baby Blues
TTITLE10=One Of Your Nights
TTITLE11=Family Tree
TTITLE12=Rodeo Queen
TTITLE13=Fence Post
EXTD=
EXTT0=
EXTT1=
EXTT2=
EXTT3=
EXTT4=
EXTT5=
EXTT6=
EXTT7=
EXTT8=
EXTT9=
EXTT10=
EXTT11=
EXTT12=
EXTT13=
PLAYORDER=
